{
    "asset" : {
        "generator" : "Khronos glTF Blender I/O v1.8.19",
        "version" : "2.0"
    },
    "scene" : 0,
    "scenes" : [
        {
            "name" : "Scene",
            "nodes" : [
                7
            ]
        }
    ],
    "nodes" : [
        {
            "mesh" : 0,
            "name" : "curve1_lambert2_0"
        },
        {
            "mesh" : 1,
            "name" : "curve1_lambert3_0"
        },
        {
            "mesh" : 2,
            "name" : "curve1_lambert4_0"
        },
        {
            "mesh" : 3,
            "name" : "curve1_lambert5_0"
        },
        {
            "children" : [
                0,
                1,
                2,
                3
            ],
            "name" : "curve1",
            "scale" : [
                0.18684396147727966,
                0.18684396147727966,
                0.18684396147727966
            ],
            "translation" : [
                0.1243300810456276,
                -0.26821112632751465,
                0.15557870268821716
            ]
        },
        {
            "children" : [
                4
            ],
            "name" : "RootNode"
        },
        {
            "children" : [
                5
            ],
            "name" : "638a10dcaa4d431787786d6b2ae476aa.fbx",
            "rotation" : [
                0.7071068286895752,
                0,
                0,
                0.7071068286895752
            ]
        },
        {
            "children" : [
                6
            ],
            "name" : "Sketchfab_model",
            "rotation" : [
                -0.7071068286895752,
                0,
                0,
                0.7071068286895752
            ]
        }
    ],
    "materials" : [
        {
            "doubleSided" : true,
            "name" : "lambert2",
            "pbrMetallicRoughness" : {
                "baseColorFactor" : [
                    0.5,
                    0.0794999971985817,
                    0.09690169990062714,
                    1
                ],
                "metallicFactor" : 0,
                "roughnessFactor" : 0.6000000238418579
            }
        },
        {
            "doubleSided" : true,
            "name" : "lambert3",
            "pbrMetallicRoughness" : {
                "baseColorFactor" : [
                    0.04354200139641762,
                    0.05900000035762787,
                    0.04844610020518303,
                    1
                ],
                "metallicFactor" : 0,
                "roughnessFactor" : 0.6000000238418579
            }
        },
        {
            "doubleSided" : true,
            "name" : "lambert4",
            "pbrMetallicRoughness" : {
                "baseColorFactor" : [
                    0.21756500005722046,
                    0.26499998569488525,
                    0.23261399567127228,
                    1
                ],
                "metallicFactor" : 0,
                "roughnessFactor" : 0.6000000238418579
            }
        },
        {
            "doubleSided" : true,
            "name" : "lambert5",
            "pbrMetallicRoughness" : {
                "baseColorFactor" : [
                    1,
                    0.984669029712677,
                    0.8830000162124634,
                    1
                ],
                "metallicFactor" : 0,
                "roughnessFactor" : 0.6000000238418579
            }
        }
    ],
    "meshes" : [
        {
            "name" : "curve1_lambert2_0",
            "primitives" : [
                {
                    "attributes" : {
                        "POSITION" : 0,
                        "NORMAL" : 1,
                        "TEXCOORD_0" : 2
                    },
                    "indices" : 3,
                    "material" : 0
                }
            ]
        },
        {
            "name" : "curve1_lambert3_0",
            "primitives" : [
                {
                    "attributes" : {
                        "POSITION" : 4,
                        "NORMAL" : 5,
                        "TEXCOORD_0" : 6
                    },
                    "indices" : 7,
                    "material" : 1
                }
            ]
        },
        {
            "name" : "curve1_lambert4_0",
            "primitives" : [
                {
                    "attributes" : {
                        "POSITION" : 8,
                        "NORMAL" : 9,
                        "TEXCOORD_0" : 10
                    },
                    "indices" : 11,
                    "material" : 2
                }
            ]
        },
        {
            "name" : "curve1_lambert5_0",
            "primitives" : [
                {
                    "attributes" : {
                        "POSITION" : 12,
                        "NORMAL" : 13,
                        "TEXCOORD_0" : 14
                    },
                    "indices" : 15,
                    "material" : 3
                }
            ]
        }
    ],
    "accessors" : [
        {
            "bufferView" : 0,
            "componentType" : 5126,
            "count" : 1872,
            "max" : [
                0.9627799987792969,
                4.366940975189209,
                0.7578736543655396
            ],
            "min" : [
                -0.7511263489723206,
                3.4379665851593018,
                -0.28986769914627075
            ],
            "type" : "VEC3"
        },
        {
            "bufferView" : 1,
            "componentType" : 5126,
            "count" : 1872,
            "type" : "VEC3"
        },
        {
            "bufferView" : 2,
            "componentType" : 5126,
            "count" : 1872,
            "type" : "VEC2"
        },
        {
            "bufferView" : 3,
            "componentType" : 5123,
            "count" : 5736,
            "type" : "SCALAR"
        },
        {
            "bufferView" : 4,
            "componentType" : 5126,
            "count" : 3042,
            "max" : [
                0.9153326153755188,
                4.5019145011901855,
                0.6328381299972534
            ],
            "min" : [
                -1.4096786975860596,
                2.1163439750671387,
                -3.9789538383483887
            ],
            "type" : "VEC3"
        },
        {
            "bufferView" : 5,
            "componentType" : 5126,
            "count" : 3042,
            "type" : "VEC3"
        },
        {
            "bufferView" : 6,
            "componentType" : 5126,
            "count" : 3042,
            "type" : "VEC2"
        },
        {
            "bufferView" : 7,
            "componentType" : 5123,
            "count" : 4008,
            "type" : "SCALAR"
        },
        {
            "bufferView" : 8,
            "componentType" : 5126,
            "count" : 5407,
            "max" : [
                2.32496976852417,
                3.5861892700195312,
                1.0869708061218262
            ],
            "min" : [
                -2.6575026512145996,
                1.5830843448638916,
                -1.8505005836486816
            ],
            "type" : "VEC3"
        },
        {
            "bufferView" : 9,
            "componentType" : 5126,
            "count" : 5407,
            "type" : "VEC3"
        },
        {
            "bufferView" : 10,
            "componentType" : 5126,
            "count" : 5407,
            "type" : "VEC2"
        },
        {
            "bufferView" : 11,
            "componentType" : 5123,
            "count" : 14976,
            "type" : "SCALAR"
        },
        {
            "bufferView" : 12,
            "componentType" : 5126,
            "count" : 80,
            "max" : [
                0.4229162633419037,
                5.388975143432617,
                -0.8885939121246338
            ],
            "min" : [
                -1.9770864248275757,
                4.1092963218688965,
                -4.302868843078613
            ],
            "type" : "VEC3"
        },
        {
            "bufferView" : 13,
            "componentType" : 5126,
            "count" : 80,
            "type" : "VEC3"
        },
        {
            "bufferView" : 14,
            "componentType" : 5126,
            "count" : 80,
            "type" : "VEC2"
        },
        {
            "bufferView" : 15,
            "componentType" : 5123,
            "count" : 120,
            "type" : "SCALAR"
        }
    ],
    "bufferViews" : [
        {
            "buffer" : 0,
            "byteLength" : 22464,
            "byteOffset" : 0
        },
        {
            "buffer" : 0,
            "byteLength" : 22464,
            "byteOffset" : 22464
        },
        {
            "buffer" : 0,
            "byteLength" : 14976,
            "byteOffset" : 44928
        },
        {
            "buffer" : 0,
            "byteLength" : 11472,
            "byteOffset" : 59904
        },
        {
            "buffer" : 0,
            "byteLength" : 36504,
            "byteOffset" : 71376
        },
        {
            "buffer" : 0,
            "byteLength" : 36504,
            "byteOffset" : 107880
        },
        {
            "buffer" : 0,
            "byteLength" : 24336,
            "byteOffset" : 144384
        },
        {
            "buffer" : 0,
            "byteLength" : 8016,
            "byteOffset" : 168720
        },
        {
            "buffer" : 0,
            "byteLength" : 64884,
            "byteOffset" : 176736
        },
        {
            "buffer" : 0,
            "byteLength" : 64884,
            "byteOffset" : 241620
        },
        {
            "buffer" : 0,
            "byteLength" : 43256,
            "byteOffset" : 306504
        },
        {
            "buffer" : 0,
            "byteLength" : 29952,
            "byteOffset" : 349760
        },
        {
            "buffer" : 0,
            "byteLength" : 960,
            "byteOffset" : 379712
        },
        {
            "buffer" : 0,
            "byteLength" : 960,
            "byteOffset" : 380672
        },
        {
            "buffer" : 0,
            "byteLength" : 640,
            "byteOffset" : 381632
        },
        {
            "buffer" : 0,
            "byteLength" : 240,
            "byteOffset" : 382272
        }
    ],
    "buffers" : [
        {
            "byteLength" : 382512,
            "uri" : "data:application/octet-stream;base64,"
        }
    ]
}
