{
    "asset" : {
        "generator" : "Khronos glTF Blender I/O v1.8.19",
        "version" : "2.0"
    },
    "scene" : 0,
    "scenes" : [
        {
            "name" : "Scene",
            "nodes" : [
                5
            ]
        }
    ],
    "nodes" : [
        {
            "mesh" : 0,
            "name" : "Black Button",
            "scale" : [
                0.9900739192962646,
                1,
                0.9900736808776855
            ],
            "translation" : [
                -0.0012413263320922852,
                -0.0016583800315856934,
                -0.0007207393646240234
            ]
        },
        {
            "mesh" : 1,
            "name" : "Red Button"
        },
        {
            "mesh" : 2,
            "name" : "Stick"
        },
        {
            "mesh" : 3,
            "name" : "Wrapper",
            "scale" : [
                0.9900739192962646,
                1,
                0.9900736808776855
            ],
            "translation" : [
                -0.0012413263320922852,
                -0.0016583800315856934,
                -0.0007207393646240234
            ]
        },
        {
            "mesh" : 4,
            "name" : "Wrapper.001",
            "scale" : [
                0.9900739192962646,
                1,
                0.9900736808776855
            ],
            "translation" : [
                -0.0012413263320922852,
                -0.0016583800315856934,
                -0.0007207393646240234
            ]
        },
        {
            "children" : [
                0,
                1,
                2,
                3,
                4
            ],
            "mesh" : 5,
            "name" : "Handle",
            "rotation" : [
                0.602026641368866,
                0.5698495507240295,
                -0.36100834608078003,
                0.4272100329399109
            ],
            "scale" : [
                0.28641441464424133,
                2.372368097305298,
                0.28641441464424133
            ],
            "translation" : [
                -1.2017498016357422,
                0.3687260150909424,
                0.3693692088127136
            ]
        }
    ],
    "materials" : [
        {
            "doubleSided" : true,
            "name" : "Black",
            "pbrMetallicRoughness" : {
                "baseColorFactor" : [
                    0,
                    0,
                    0,
                    1
                ],
                "metallicFactor" : 0,
                "roughnessFactor" : 0.26818180084228516
            }
        },
        {
            "doubleSided" : true,
            "name" : "Red Button",
            "pbrMetallicRoughness" : {
                "baseColorFactor" : [
                    0.1844121664762497,
                    0.0011887216242030263,
                    0,
                    1
                ],
                "metallicFactor" : 0,
                "roughnessFactor" : 0.5
            }
        },
        {
            "doubleSided" : true,
            "emissiveFactor" : [
                0.17732635140419006,
                1,
                0.10181013494729996
            ],
            "name" : "Beam",
            "pbrMetallicRoughness" : {}
        },
        {
            "doubleSided" : true,
            "name" : "Silver",
            "pbrMetallicRoughness" : {
                "metallicFactor" : 0,
                "roughnessFactor" : 0.2680000066757202
            }
        }
    ],
    "meshes" : [
        {
            "name" : "Cylinder.002",
            "primitives" : [
                {
                    "attributes" : {
                        "POSITION" : 0,
                        "NORMAL" : 1,
                        "TEXCOORD_0" : 2
                    },
                    "indices" : 3,
                    "material" : 0
                }
            ]
        },
        {
            "name" : "Cylinder.004",
            "primitives" : [
                {
                    "attributes" : {
                        "POSITION" : 4,
                        "NORMAL" : 5,
                        "TEXCOORD_0" : 6
                    },
                    "indices" : 7,
                    "material" : 1
                }
            ]
        },
        {
            "name" : "Cylinder.001",
            "primitives" : [
                {
                    "attributes" : {
                        "POSITION" : 8,
                        "NORMAL" : 9,
                        "TEXCOORD_0" : 10
                    },
                    "indices" : 11,
                    "material" : 2
                }
            ]
        },
        {
            "name" : "Cylinder.003",
            "primitives" : [
                {
                    "attributes" : {
                        "POSITION" : 12,
                        "NORMAL" : 13,
                        "TEXCOORD_0" : 14
                    },
                    "indices" : 15,
                    "material" : 3
                }
            ]
        },
        {
            "name" : "Cylinder.006",
            "primitives" : [
                {
                    "attributes" : {
                        "POSITION" : 16,
                        "NORMAL" : 17,
                        "TEXCOORD_0" : 18
                    },
                    "indices" : 19,
                    "material" : 0
                }
            ]
        },
        {
            "name" : "Cylinder",
            "primitives" : [
                {
                    "attributes" : {
                        "POSITION" : 20,
                        "NORMAL" : 21,
                        "TEXCOORD_0" : 22
                    },
                    "indices" : 23,
                    "material" : 0
                }
            ]
        }
    ],
    "accessors" : [
        {
            "bufferView" : 0,
            "componentType" : 5126,
            "count" : 867,
            "max" : [
                1.5906480550765991,
                -0.4397895932197571,
                0.5284053087234497
            ],
            "min" : [
                0.8677453994750977,
                -0.5673775672912598,
                -0.5284053087234497
            ],
            "type" : "VEC3"
        },
        {
            "bufferView" : 1,
            "componentType" : 5126,
            "count" : 867,
            "type" : "VEC3"
        },
        {
            "bufferView" : 2,
            "componentType" : 5126,
            "count" : 867,
            "type" : "VEC2"
        },
        {
            "bufferView" : 3,
            "componentType" : 5123,
            "count" : 4032,
            "type" : "SCALAR"
        },
        {
            "bufferView" : 4,
            "componentType" : 5126,
            "count" : 4820,
            "max" : [
                -1.0890125036239624,
                0.26009488105773926,
                0.44044291973114014
            ],
            "min" : [
                -1.3290082216262817,
                0.15374618768692017,
                -0.4404429495334625
            ],
            "type" : "VEC3"
        },
        {
            "bufferView" : 5,
            "componentType" : 5126,
            "count" : 4820,
            "type" : "VEC3"
        },
        {
            "bufferView" : 6,
            "componentType" : 5126,
            "count" : 4820,
            "type" : "VEC2"
        },
        {
            "bufferView" : 7,
            "componentType" : 5123,
            "count" : 19008,
            "type" : "SCALAR"
        },
        {
            "bufferView" : 8,
            "componentType" : 5126,
            "count" : 476,
            "max" : [
                0.4622015953063965,
                4.104806900024414,
                0.4760090708732605
            ],
            "min" : [
                -0.48981979489326477,
                0.9458991289138794,
                -0.476009339094162
            ],
            "type" : "VEC3"
        },
        {
            "bufferView" : 9,
            "componentType" : 5126,
            "count" : 476,
            "type" : "VEC3"
        },
        {
            "bufferView" : 10,
            "componentType" : 5126,
            "count" : 476,
            "type" : "VEC2"
        },
        {
            "bufferView" : 11,
            "componentType" : 5123,
            "count" : 2496,
            "type" : "SCALAR"
        },
        {
            "bufferView" : 12,
            "componentType" : 5126,
            "count" : 4949,
            "max" : [
                1.0404590368270874,
                0.6235633492469788,
                1.0406358242034912
            ],
            "min" : [
                -1.0376200675964355,
                -0.8835594654083252,
                -1.0406358242034912
            ],
            "type" : "VEC3"
        },
        {
            "bufferView" : 13,
            "componentType" : 5126,
            "count" : 4949,
            "type" : "VEC3"
        },
        {
            "bufferView" : 14,
            "componentType" : 5126,
            "count" : 4949,
            "type" : "VEC2"
        },
        {
            "bufferView" : 15,
            "componentType" : 5123,
            "count" : 20568,
            "type" : "SCALAR"
        },
        {
            "bufferView" : 16,
            "componentType" : 5126,
            "count" : 1642,
            "max" : [
                1.0369303226470947,
                0.48597994446754456,
                0.33758169412612915
            ],
            "min" : [
                0.8730332255363464,
                -0.7528831958770752,
                -0.3376021981239319
            ],
            "type" : "VEC3"
        },
        {
            "bufferView" : 17,
            "componentType" : 5126,
            "count" : 1642,
            "type" : "VEC3"
        },
        {
            "bufferView" : 18,
            "componentType" : 5126,
            "count" : 1642,
            "type" : "VEC2"
        },
        {
            "bufferView" : 19,
            "componentType" : 5123,
            "count" : 6912,
            "type" : "SCALAR"
        },
        {
            "bufferView" : 20,
            "componentType" : 5126,
            "count" : 7175,
            "max" : [
                1.3585946559906006,
                1.0129412412643433,
                1.3724052906036377
            ],
            "min" : [
                -1.3862156867980957,
                -1.005277156829834,
                -1.3724055290222168
            ],
            "type" : "VEC3"
        },
        {
            "bufferView" : 21,
            "componentType" : 5126,
            "count" : 7175,
            "type" : "VEC3"
        },
        {
            "bufferView" : 22,
            "componentType" : 5126,
            "count" : 7175,
            "type" : "VEC2"
        },
        {
            "bufferView" : 23,
            "componentType" : 5123,
            "count" : 25596,
            "type" : "SCALAR"
        }
    ],
    "bufferViews" : [
        {
            "buffer" : 0,
            "byteLength" : 10404,
            "byteOffset" : 0
        },
        {
            "buffer" : 0,
            "byteLength" : 10404,
            "byteOffset" : 10404
        },
        {
            "buffer" : 0,
            "byteLength" : 6936,
            "byteOffset" : 20808
        },
        {
            "buffer" : 0,
            "byteLength" : 8064,
            "byteOffset" : 27744
        },
        {
            "buffer" : 0,
            "byteLength" : 57840,
            "byteOffset" : 35808
        },
        {
            "buffer" : 0,
            "byteLength" : 57840,
            "byteOffset" : 93648
        },
        {
            "buffer" : 0,
            "byteLength" : 38560,
            "byteOffset" : 151488
        },
        {
            "buffer" : 0,
            "byteLength" : 38016,
            "byteOffset" : 190048
        },
        {
            "buffer" : 0,
            "byteLength" : 5712,
            "byteOffset" : 228064
        },
        {
            "buffer" : 0,
            "byteLength" : 5712,
            "byteOffset" : 233776
        },
        {
            "buffer" : 0,
            "byteLength" : 3808,
            "byteOffset" : 239488
        },
        {
            "buffer" : 0,
            "byteLength" : 4992,
            "byteOffset" : 243296
        },
        {
            "buffer" : 0,
            "byteLength" : 59388,
            "byteOffset" : 248288
        },
        {
            "buffer" : 0,
            "byteLength" : 59388,
            "byteOffset" : 307676
        },
        {
            "buffer" : 0,
            "byteLength" : 39592,
            "byteOffset" : 367064
        },
        {
            "buffer" : 0,
            "byteLength" : 41136,
            "byteOffset" : 406656
        },
        {
            "buffer" : 0,
            "byteLength" : 19704,
            "byteOffset" : 447792
        },
        {
            "buffer" : 0,
            "byteLength" : 19704,
            "byteOffset" : 467496
        },
        {
            "buffer" : 0,
            "byteLength" : 13136,
            "byteOffset" : 487200
        },
        {
            "buffer" : 0,
            "byteLength" : 13824,
            "byteOffset" : 500336
        },
        {
            "buffer" : 0,
            "byteLength" : 86100,
            "byteOffset" : 514160
        },
        {
            "buffer" : 0,
            "byteLength" : 86100,
            "byteOffset" : 600260
        },
        {
            "buffer" : 0,
            "byteLength" : 57400,
            "byteOffset" : 686360
        },
        {
            "buffer" : 0,
            "byteLength" : 51192,
            "byteOffset" : 743760
        }
    ],
    "buffers" : [
        {
            "byteLength" : 794952,
            "uri" : "data:application/octet-stream;base64,"
        }
    ]
}
