{
    "asset" : {
        "generator" : "Khronos glTF Blender I/O v1.8.19",
        "version" : "2.0"
    },
    "scene" : 0,
    "scenes" : [
        {
            "name" : "Scene",
            "nodes" : [
                0,
                2,
                3,
                5,
                6
            ]
        }
    ],
    "nodes" : [
        {
            "mesh" : 0,
            "name" : "Sphere"
        },
        {
            "mesh" : 1,
            "name" : "Circle.001",
            "scale" : [
                6.091256618499756,
                6.091256618499756,
                6.091256618499756
            ]
        },
        {
            "children" : [
                1
            ],
            "mesh" : 2,
            "name" : "Sphere.001",
            "scale" : [
                0.4681788384914398,
                0.4681788384914398,
                0.4681788384914398
            ]
        },
        {
            "mesh" : 3,
            "name" : "Sphere.002",
            "scale" : [
                0.2988200783729553,
                0.2988200783729553,
                0.2988200783729553
            ]
        },
        {
            "mesh" : 4,
            "name" : "Sphere.004",
            "scale" : [
                0.25977036356925964,
                0.25977036356925964,
                0.25977036356925964
            ],
            "translation" : [
                -0.02228311076760292,
                0,
                9.487732887268066
            ]
        },
        {
            "children" : [
                4
            ],
            "mesh" : 5,
            "name" : "Sphere.003",
            "scale" : [
                0.684049665927887,
                0.684049665927887,
                0.684049665927887
            ]
        },
        {
            "mesh" : 6,
            "name" : "Circle",
            "rotation" : [
                0,
                0,
                -0.08898863941431046,
                0.9960326552391052
            ]
        }
    ],
    "animations" : [
        {
            "channels" : [
                {
                    "sampler" : 0,
                    "target" : {
                        "node" : 2,
                        "path" : "rotation"
                    }
                }
            ],
            "name" : "Sphere.001Action",
            "samplers" : [
                {
                    "input" : 34,
                    "interpolation" : "LINEAR",
                    "output" : 35
                }
            ]
        },
        {
            "channels" : [
                {
                    "sampler" : 0,
                    "target" : {
                        "node" : 3,
                        "path" : "rotation"
                    }
                }
            ],
            "name" : "Sphere.002Action",
            "samplers" : [
                {
                    "input" : 34,
                    "interpolation" : "LINEAR",
                    "output" : 36
                }
            ]
        },
        {
            "channels" : [
                {
                    "sampler" : 0,
                    "target" : {
                        "node" : 5,
                        "path" : "rotation"
                    }
                }
            ],
            "name" : "Sphere.003Action",
            "samplers" : [
                {
                    "input" : 34,
                    "interpolation" : "LINEAR",
                    "output" : 37
                }
            ]
        },
        {
            "channels" : [
                {
                    "sampler" : 0,
                    "target" : {
                        "node" : 4,
                        "path" : "rotation"
                    }
                }
            ],
            "name" : "Sphere.004Action.002",
            "samplers" : [
                {
                    "input" : 34,
                    "interpolation" : "LINEAR",
                    "output" : 38
                }
            ]
        },
        {
            "channels" : [
                {
                    "sampler" : 0,
                    "target" : {
                        "node" : 6,
                        "path" : "rotation"
                    }
                }
            ],
            "name" : "CircleAction",
            "samplers" : [
                {
                    "input" : 34,
                    "interpolation" : "LINEAR",
                    "output" : 39
                }
            ]
        }
    ],
    "materials" : [
        {
            "doubleSided" : true,
            "name" : "Material",
            "pbrMetallicRoughness" : {
                "baseColorFactor" : [
                    0.9559729099273682,
                    0.34457987546920776,
                    0.05613348260521889,
                    1
                ],
                "metallicFactor" : 0,
                "roughnessFactor" : 0.5
            }
        },
        {
            "doubleSided" : true,
            "name" : "Material.005",
            "pbrMetallicRoughness" : {
                "baseColorFactor" : [
                    0.11455973982810974,
                    0.3846260607242584,
                    0.42145898938179016,
                    1
                ],
                "metallicFactor" : 0,
                "roughnessFactor" : 0.5
            }
        },
        {
            "doubleSided" : true,
            "name" : "Material.001",
            "pbrMetallicRoughness" : {
                "baseColorFactor" : [
                    0.0024280324578285217,
                    0.11443531513214111,
                    0.12477179616689682,
                    1
                ],
                "metallicFactor" : 0,
                "roughnessFactor" : 0.4000000059604645
            }
        },
        {
            "doubleSided" : true,
            "name" : "Material.002",
            "pbrMetallicRoughness" : {
                "baseColorFactor" : [
                    1,
                    0.09989851713180542,
                    0.09989875555038452,
                    1
                ],
                "metallicFactor" : 0,
                "roughnessFactor" : 0.5
            }
        },
        {
            "doubleSided" : true,
            "name" : "Material.004",
            "pbrMetallicRoughness" : {
                "baseColorFactor" : [
                    0.7973806858062744,
                    0.31573179364204407,
                    0.8000000715255737,
                    1
                ],
                "metallicFactor" : 0,
                "roughnessFactor" : 0.5
            }
        },
        {
            "doubleSided" : true,
            "name" : "Material.003",
            "pbrMetallicRoughness" : {
                "baseColorFactor" : [
                    0.312908798456192,
                    0.8000000715255737,
                    0.22011899948120117,
                    1
                ],
                "metallicFactor" : 0,
                "roughnessFactor" : 0.5
            }
        },
        {
            "doubleSided" : true,
            "name" : "Material.006",
            "pbrMetallicRoughness" : {
                "baseColorFactor" : [
                    0.4922230541706085,
                    0.449636846780777,
                    0.126417338848114,
                    1
                ],
                "metallicFactor" : 0,
                "roughnessFactor" : 0.5
            }
        }
    ],
    "meshes" : [
        {
            "name" : "Sphere",
            "primitives" : [
                {
                    "attributes" : {
                        "POSITION" : 0,
                        "NORMAL" : 1,
                        "TEXCOORD_0" : 2,
                        "TEXCOORD_1" : 3
                    },
                    "indices" : 4,
                    "material" : 0
                }
            ]
        },
        {
            "name" : "Circle.002",
            "primitives" : [
                {
                    "attributes" : {
                        "POSITION" : 5,
                        "NORMAL" : 6,
                        "TEXCOORD_0" : 7
                    },
                    "indices" : 8,
                    "material" : 1
                }
            ]
        },
        {
            "name" : "Sphere.001",
            "primitives" : [
                {
                    "attributes" : {
                        "POSITION" : 9,
                        "NORMAL" : 10,
                        "TEXCOORD_0" : 11,
                        "TEXCOORD_1" : 12
                    },
                    "indices" : 13,
                    "material" : 2
                }
            ]
        },
        {
            "name" : "Sphere.002",
            "primitives" : [
                {
                    "attributes" : {
                        "POSITION" : 14,
                        "NORMAL" : 15,
                        "TEXCOORD_0" : 16,
                        "TEXCOORD_1" : 17
                    },
                    "indices" : 18,
                    "material" : 3
                }
            ]
        },
        {
            "name" : "Sphere.004",
            "primitives" : [
                {
                    "attributes" : {
                        "POSITION" : 19,
                        "NORMAL" : 20,
                        "TEXCOORD_0" : 21,
                        "TEXCOORD_1" : 22
                    },
                    "indices" : 23,
                    "material" : 4
                }
            ]
        },
        {
            "name" : "Sphere.003",
            "primitives" : [
                {
                    "attributes" : {
                        "POSITION" : 24,
                        "NORMAL" : 25,
                        "TEXCOORD_0" : 26,
                        "TEXCOORD_1" : 27
                    },
                    "indices" : 28,
                    "material" : 5
                }
            ]
        },
        {
            "name" : "Circle.001",
            "primitives" : [
                {
                    "attributes" : {
                        "POSITION" : 29,
                        "NORMAL" : 30,
                        "TEXCOORD_0" : 31,
                        "TEXCOORD_1" : 32
                    },
                    "indices" : 33,
                    "material" : 6
                }
            ]
        }
    ],
    "accessors" : [
        {
            "bufferView" : 0,
            "componentType" : 5126,
            "count" : 542,
            "max" : [
                0.9999997019767761,
                1,
                0.9999994039535522
            ],
            "min" : [
                -0.9999990463256836,
                -1,
                -0.9999987483024597
            ],
            "type" : "VEC3"
        },
        {
            "bufferView" : 1,
            "componentType" : 5126,
            "count" : 542,
            "type" : "VEC3"
        },
        {
            "bufferView" : 2,
            "componentType" : 5126,
            "count" : 542,
            "type" : "VEC2"
        },
        {
            "bufferView" : 3,
            "componentType" : 5126,
            "count" : 542,
            "type" : "VEC2"
        },
        {
            "bufferView" : 4,
            "componentType" : 5123,
            "count" : 2880,
            "type" : "SCALAR"
        },
        {
            "bufferView" : 5,
            "componentType" : 5126,
            "count" : 12727,
            "max" : [
                -0.2895323932170868,
                0.008948343805968761,
                0.9564810991287231
            ],
            "min" : [
                -0.997077465057373,
                -0.008948343805968761,
                -0.2883474826812744
            ],
            "type" : "VEC3"
        },
        {
            "bufferView" : 6,
            "componentType" : 5126,
            "count" : 12727,
            "type" : "VEC3"
        },
        {
            "bufferView" : 7,
            "componentType" : 5126,
            "count" : 12727,
            "type" : "VEC2"
        },
        {
            "bufferView" : 8,
            "componentType" : 5123,
            "count" : 62400,
            "type" : "SCALAR"
        },
        {
            "bufferView" : 9,
            "componentType" : 5126,
            "count" : 542,
            "max" : [
                0.9999997019767761,
                1,
                6.911606311798096
            ],
            "min" : [
                -0.9999990463256836,
                -1,
                4.9116082191467285
            ],
            "type" : "VEC3"
        },
        {
            "bufferView" : 10,
            "componentType" : 5126,
            "count" : 542,
            "type" : "VEC3"
        },
        {
            "bufferView" : 11,
            "componentType" : 5126,
            "count" : 542,
            "type" : "VEC2"
        },
        {
            "bufferView" : 12,
            "componentType" : 5126,
            "count" : 542,
            "type" : "VEC2"
        },
        {
            "bufferView" : 13,
            "componentType" : 5123,
            "count" : 2880,
            "type" : "SCALAR"
        },
        {
            "bufferView" : 14,
            "componentType" : 5126,
            "count" : 542,
            "max" : [
                0.9999997019767761,
                1,
                14.610013961791992
            ],
            "min" : [
                -0.9999990463256836,
                -1,
                12.610015869140625
            ],
            "type" : "VEC3"
        },
        {
            "bufferView" : 15,
            "componentType" : 5126,
            "count" : 542,
            "type" : "VEC3"
        },
        {
            "bufferView" : 16,
            "componentType" : 5126,
            "count" : 542,
            "type" : "VEC2"
        },
        {
            "bufferView" : 17,
            "componentType" : 5126,
            "count" : 542,
            "type" : "VEC2"
        },
        {
            "bufferView" : 18,
            "componentType" : 5123,
            "count" : 2880,
            "type" : "SCALAR"
        },
        {
            "bufferView" : 19,
            "componentType" : 5126,
            "count" : 542,
            "max" : [
                7.81969690322876,
                1.0000001192092896,
                -1.2120323181152344
            ],
            "min" : [
                5.819698333740234,
                -0.9999998807907104,
                -3.2120304107666016
            ],
            "type" : "VEC3"
        },
        {
            "bufferView" : 20,
            "componentType" : 5126,
            "count" : 542,
            "type" : "VEC3"
        },
        {
            "bufferView" : 21,
            "componentType" : 5126,
            "count" : 542,
            "type" : "VEC2"
        },
        {
            "bufferView" : 22,
            "componentType" : 5126,
            "count" : 542,
            "type" : "VEC2"
        },
        {
            "bufferView" : 23,
            "componentType" : 5123,
            "count" : 2880,
            "type" : "SCALAR"
        },
        {
            "bufferView" : 24,
            "componentType" : 5126,
            "count" : 542,
            "max" : [
                0.9777165055274963,
                1,
                10.487732887268066
            ],
            "min" : [
                -1.0222822427749634,
                -1,
                8.4877347946167
            ],
            "type" : "VEC3"
        },
        {
            "bufferView" : 25,
            "componentType" : 5126,
            "count" : 542,
            "type" : "VEC3"
        },
        {
            "bufferView" : 26,
            "componentType" : 5126,
            "count" : 542,
            "type" : "VEC2"
        },
        {
            "bufferView" : 27,
            "componentType" : 5126,
            "count" : 542,
            "type" : "VEC2"
        },
        {
            "bufferView" : 28,
            "componentType" : 5123,
            "count" : 2880,
            "type" : "SCALAR"
        },
        {
            "bufferView" : 29,
            "componentType" : 5126,
            "count" : 1006,
            "max" : [
                1.6993368864059448,
                0.014999999664723873,
                1.6993368864059448
            ],
            "min" : [
                -1.6993367671966553,
                -0.014999999664723873,
                -1.6993368864059448
            ],
            "type" : "VEC3"
        },
        {
            "bufferView" : 30,
            "componentType" : 5126,
            "count" : 1006,
            "type" : "VEC3"
        },
        {
            "bufferView" : 31,
            "componentType" : 5126,
            "count" : 1006,
            "type" : "VEC2"
        },
        {
            "bufferView" : 32,
            "componentType" : 5126,
            "count" : 1006,
            "type" : "VEC2"
        },
        {
            "bufferView" : 33,
            "componentType" : 5123,
            "count" : 1536,
            "type" : "SCALAR"
        },
        {
            "bufferView" : 34,
            "componentType" : 5126,
            "count" : 251,
            "max" : [
                10.416666666666666
            ],
            "min" : [
                0
            ],
            "type" : "SCALAR"
        },
        {
            "bufferView" : 35,
            "componentType" : 5126,
            "count" : 251,
            "type" : "VEC4"
        },
        {
            "bufferView" : 36,
            "componentType" : 5126,
            "count" : 251,
            "type" : "VEC4"
        },
        {
            "bufferView" : 37,
            "componentType" : 5126,
            "count" : 251,
            "type" : "VEC4"
        },
        {
            "bufferView" : 38,
            "componentType" : 5126,
            "count" : 251,
            "type" : "VEC4"
        },
        {
            "bufferView" : 39,
            "componentType" : 5126,
            "count" : 251,
            "type" : "VEC4"
        }
    ],
    "bufferViews" : [
        {
            "buffer" : 0,
            "byteLength" : 6504,
            "byteOffset" : 0
        },
        {
            "buffer" : 0,
            "byteLength" : 6504,
            "byteOffset" : 6504
        },
        {
            "buffer" : 0,
            "byteLength" : 4336,
            "byteOffset" : 13008
        },
        {
            "buffer" : 0,
            "byteLength" : 4336,
            "byteOffset" : 17344
        },
        {
            "buffer" : 0,
            "byteLength" : 5760,
            "byteOffset" : 21680
        },
        {
            "buffer" : 0,
            "byteLength" : 152724,
            "byteOffset" : 27440
        },
        {
            "buffer" : 0,
            "byteLength" : 152724,
            "byteOffset" : 180164
        },
        {
            "buffer" : 0,
            "byteLength" : 101816,
            "byteOffset" : 332888
        },
        {
            "buffer" : 0,
            "byteLength" : 124800,
            "byteOffset" : 434704
        },
        {
            "buffer" : 0,
            "byteLength" : 6504,
            "byteOffset" : 559504
        },
        {
            "buffer" : 0,
            "byteLength" : 6504,
            "byteOffset" : 566008
        },
        {
            "buffer" : 0,
            "byteLength" : 4336,
            "byteOffset" : 572512
        },
        {
            "buffer" : 0,
            "byteLength" : 4336,
            "byteOffset" : 576848
        },
        {
            "buffer" : 0,
            "byteLength" : 5760,
            "byteOffset" : 581184
        },
        {
            "buffer" : 0,
            "byteLength" : 6504,
            "byteOffset" : 586944
        },
        {
            "buffer" : 0,
            "byteLength" : 6504,
            "byteOffset" : 593448
        },
        {
            "buffer" : 0,
            "byteLength" : 4336,
            "byteOffset" : 599952
        },
        {
            "buffer" : 0,
            "byteLength" : 4336,
            "byteOffset" : 604288
        },
        {
            "buffer" : 0,
            "byteLength" : 5760,
            "byteOffset" : 608624
        },
        {
            "buffer" : 0,
            "byteLength" : 6504,
            "byteOffset" : 614384
        },
        {
            "buffer" : 0,
            "byteLength" : 6504,
            "byteOffset" : 620888
        },
        {
            "buffer" : 0,
            "byteLength" : 4336,
            "byteOffset" : 627392
        },
        {
            "buffer" : 0,
            "byteLength" : 4336,
            "byteOffset" : 631728
        },
        {
            "buffer" : 0,
            "byteLength" : 5760,
            "byteOffset" : 636064
        },
        {
            "buffer" : 0,
            "byteLength" : 6504,
            "byteOffset" : 641824
        },
        {
            "buffer" : 0,
            "byteLength" : 6504,
            "byteOffset" : 648328
        },
        {
            "buffer" : 0,
            "byteLength" : 4336,
            "byteOffset" : 654832
        },
        {
            "buffer" : 0,
            "byteLength" : 4336,
            "byteOffset" : 659168
        },
        {
            "buffer" : 0,
            "byteLength" : 5760,
            "byteOffset" : 663504
        },
        {
            "buffer" : 0,
            "byteLength" : 12072,
            "byteOffset" : 669264
        },
        {
            "buffer" : 0,
            "byteLength" : 12072,
            "byteOffset" : 681336
        },
        {
            "buffer" : 0,
            "byteLength" : 8048,
            "byteOffset" : 693408
        },
        {
            "buffer" : 0,
            "byteLength" : 8048,
            "byteOffset" : 701456
        },
        {
            "buffer" : 0,
            "byteLength" : 3072,
            "byteOffset" : 709504
        },
        {
            "buffer" : 0,
            "byteLength" : 1004,
            "byteOffset" : 712576
        },
        {
            "buffer" : 0,
            "byteLength" : 4016,
            "byteOffset" : 713580
        },
        {
            "buffer" : 0,
            "byteLength" : 4016,
            "byteOffset" : 717596
        },
        {
            "buffer" : 0,
            "byteLength" : 4016,
            "byteOffset" : 721612
        },
        {
            "buffer" : 0,
            "byteLength" : 4016,
            "byteOffset" : 725628
        },
        {
            "buffer" : 0,
            "byteLength" : 4016,
            "byteOffset" : 729644
        }
    ],
    "buffers" : [
        {
            "byteLength" : 733660,
            "uri" : "data:application/octet-stream;base64,"
        }
    ]
}
