{
    "asset" : {
        "generator" : "Khronos glTF Blender I/O v1.8.19",
        "version" : "2.0"
    },
    "extensionsUsed" : [
        "KHR_materials_transmission"
    ],
    "scene" : 0,
    "scenes" : [
        {
            "name" : "Scene",
            "nodes" : [
                0
            ]
        }
    ],
    "nodes" : [
        {
            "mesh" : 0,
            "name" : "Sphere",
            "scale" : [
                1,
                1,
                3
            ],
            "translation" : [
                0,
                2.2696239948272705,
                -3.1574714183807373
            ]
        }
    ],
    "materials" : [
        {
            "doubleSided" : true,
            "name" : "Purple",
            "pbrMetallicRoughness" : {
                "baseColorFactor" : [
                    0.8000000715255737,
                    0.1493608057498932,
                    0.5915189385414124,
                    1
                ],
                "metallicFactor" : 0,
                "roughnessFactor" : 0.5
            }
        },
        {
            "doubleSided" : true,
            "name" : "Pink",
            "pbrMetallicRoughness" : {
                "baseColorFactor" : [
                    0.7700933218002319,
                    0.2597704231739044,
                    0.8000000715255737,
                    1
                ],
                "metallicFactor" : 0,
                "roughnessFactor" : 0.5
            }
        },
        {
            "doubleSided" : true,
            "name" : "Metal",
            "pbrMetallicRoughness" : {
                "baseColorFactor" : [
                    0.5300241112709045,
                    0.5300241112709045,
                    0.5300241112709045,
                    1
                ],
                "metallicFactor" : 0,
                "roughnessFactor" : 0.5
            }
        },
        {
            "doubleSided" : true,
            "extensions" : {
                "KHR_materials_transmission" : {
                    "transmissionFactor" : 0.5
                }
            },
            "name" : "Liquid",
            "pbrMetallicRoughness" : {
                "baseColorFactor" : [
                    0.20046263933181763,
                    0.8000000715255737,
                    0.27962929010391235,
                    1
                ],
                "metallicFactor" : 0,
                "roughnessFactor" : 0.30000001192092896
            }
        }
    ],
    "meshes" : [
        {
            "name" : "Sphere",
            "primitives" : [
                {
                    "attributes" : {
                        "POSITION" : 0,
                        "NORMAL" : 1,
                        "TEXCOORD_0" : 2
                    },
                    "indices" : 3,
                    "material" : 0
                },
                {
                    "attributes" : {
                        "POSITION" : 4,
                        "NORMAL" : 5,
                        "TEXCOORD_0" : 6
                    },
                    "indices" : 7,
                    "material" : 1
                },
                {
                    "attributes" : {
                        "POSITION" : 8,
                        "NORMAL" : 9,
                        "TEXCOORD_0" : 10
                    },
                    "indices" : 11,
                    "material" : 2
                },
                {
                    "attributes" : {
                        "POSITION" : 12,
                        "NORMAL" : 13,
                        "TEXCOORD_0" : 14
                    },
                    "indices" : 15,
                    "material" : 3
                }
            ]
        }
    ],
    "accessors" : [
        {
            "bufferView" : 0,
            "componentType" : 5126,
            "count" : 2157,
            "max" : [
                1.0976428985595703,
                -1.1719813346862793,
                2.7587473392486572
            ],
            "min" : [
                -1.0976428985595703,
                -7.345358371734619,
                -0.8810027837753296
            ],
            "type" : "VEC3"
        },
        {
            "bufferView" : 1,
            "componentType" : 5126,
            "count" : 2157,
            "type" : "VEC3"
        },
        {
            "bufferView" : 2,
            "componentType" : 5126,
            "count" : 2157,
            "type" : "VEC2"
        },
        {
            "bufferView" : 3,
            "componentType" : 5123,
            "count" : 7134,
            "type" : "SCALAR"
        },
        {
            "bufferView" : 4,
            "componentType" : 5126,
            "count" : 492,
            "max" : [
                1,
                -0.9049357771873474,
                2.7587473392486572
            ],
            "min" : [
                -1,
                -6.785952568054199,
                -0.4959390163421631
            ],
            "type" : "VEC3"
        },
        {
            "bufferView" : 5,
            "componentType" : 5126,
            "count" : 492,
            "type" : "VEC3"
        },
        {
            "bufferView" : 6,
            "componentType" : 5126,
            "count" : 492,
            "type" : "VEC2"
        },
        {
            "bufferView" : 7,
            "componentType" : 5123,
            "count" : 1590,
            "type" : "SCALAR"
        },
        {
            "bufferView" : 8,
            "componentType" : 5126,
            "count" : 98,
            "max" : [
                1,
                -1.2696244716644287,
                2.7587473392486572
            ],
            "min" : [
                -1,
                -3.2696244716644287,
                1.5694859027862549
            ],
            "type" : "VEC3"
        },
        {
            "bufferView" : 9,
            "componentType" : 5126,
            "count" : 98,
            "type" : "VEC3"
        },
        {
            "bufferView" : 10,
            "componentType" : 5126,
            "count" : 98,
            "type" : "VEC2"
        },
        {
            "bufferView" : 11,
            "componentType" : 5123,
            "count" : 282,
            "type" : "SCALAR"
        },
        {
            "bufferView" : 12,
            "componentType" : 5126,
            "count" : 518,
            "max" : [
                0.9999997019767761,
                1,
                0.9999994039535522
            ],
            "min" : [
                -0.9999997019767761,
                -1,
                -0.9999987483024597
            ],
            "type" : "VEC3"
        },
        {
            "bufferView" : 13,
            "componentType" : 5126,
            "count" : 518,
            "type" : "VEC3"
        },
        {
            "bufferView" : 14,
            "componentType" : 5126,
            "count" : 518,
            "type" : "VEC2"
        },
        {
            "bufferView" : 15,
            "componentType" : 5123,
            "count" : 2886,
            "type" : "SCALAR"
        }
    ],
    "bufferViews" : [
        {
            "buffer" : 0,
            "byteLength" : 25884,
            "byteOffset" : 0
        },
        {
            "buffer" : 0,
            "byteLength" : 25884,
            "byteOffset" : 25884
        },
        {
            "buffer" : 0,
            "byteLength" : 17256,
            "byteOffset" : 51768
        },
        {
            "buffer" : 0,
            "byteLength" : 14268,
            "byteOffset" : 69024
        },
        {
            "buffer" : 0,
            "byteLength" : 5904,
            "byteOffset" : 83292
        },
        {
            "buffer" : 0,
            "byteLength" : 5904,
            "byteOffset" : 89196
        },
        {
            "buffer" : 0,
            "byteLength" : 3936,
            "byteOffset" : 95100
        },
        {
            "buffer" : 0,
            "byteLength" : 3180,
            "byteOffset" : 99036
        },
        {
            "buffer" : 0,
            "byteLength" : 1176,
            "byteOffset" : 102216
        },
        {
            "buffer" : 0,
            "byteLength" : 1176,
            "byteOffset" : 103392
        },
        {
            "buffer" : 0,
            "byteLength" : 784,
            "byteOffset" : 104568
        },
        {
            "buffer" : 0,
            "byteLength" : 564,
            "byteOffset" : 105352
        },
        {
            "buffer" : 0,
            "byteLength" : 6216,
            "byteOffset" : 105916
        },
        {
            "buffer" : 0,
            "byteLength" : 6216,
            "byteOffset" : 112132
        },
        {
            "buffer" : 0,
            "byteLength" : 4144,
            "byteOffset" : 118348
        },
        {
            "buffer" : 0,
            "byteLength" : 5772,
            "byteOffset" : 122492
        }
    ],
    "buffers" : [
        {
            "byteLength" : 128264,
            "uri" : "data:application/octet-stream;base64,"
        }
    ]
}
